<svg id="Layer_1" data-name="Layer 1" xmlns="http://www.w3.org/2000/svg" viewBox="0 0 428.18 88.22"><defs><style>.cls-1{fill:#231f20;stroke:#231f20;stroke-miterlimit:10;stroke-width:0.25px;}.cls-2,.cls-6,.cls-7,.cls-8{fill:#00aeef;}.cls-3,.cls-5{fill:#1b75bc;}.cls-4{fill:#fff;}.cls-5{opacity:0.75;}.cls-6,.cls-8{font-size:58px;}.cls-6{font-family:Poppins-Regular, Poppins;}.cls-7{font-size:21px;letter-spacing:0.4em;}.cls-7,.cls-8{font-family:Poppins-ExtraLight, Poppins;font-weight:200;}</style></defs><title>Globetech2</title><path class="cls-1" d="M315.48,331.41" transform="translate(-79.29 -289.39)"/><rect class="cls-2" x="87.8" y="297.9" width="71.2" height="71.2" rx="15.05" transform="translate(367.18 192.67) rotate(135)"/><path class="cls-3" d="M156.14,327.15H152.8v-9.49A32.86,32.86,0,0,1,156.14,327.15Z" transform="translate(-79.29 -289.39)"/><path class="cls-4" d="M152,316.18v11.13h-7.51V307.83c0,.12.51.49.59.56.55.52,1.09,1.05,1.63,1.58a32.8,32.8,0,0,1,4.47,5.09C151.29,315.31,151.66,315.74,152,316.18Z" transform="translate(-79.29 -289.39)"/><path class="cls-5" d="M156.23,339.06a33.26,33.26,0,0,1-11.79,20.24V339.06Z" transform="translate(-79.29 -289.39)"/><path class="cls-4" d="M142.18,361l0,.05-.56.38Z" transform="translate(-79.29 -289.39)"/><path class="cls-4" d="M101.93,328.93a26,26,0,0,0,2.15,13.21,19.8,19.8,0,0,0,9.22,9.55c6.49,3.08,14.17,1.85,20.52-1a.45.45,0,0,0,.22-.16.43.43,0,0,0,0-.22c0-1.05,0-11.78,0-11.78h-9.74V328.14h18.84v26.55l.07,5.49-1,.77-.59.43a33.29,33.29,0,0,1-27.3,4.14l-.35-.1a34.24,34.24,0,0,1-18.06-13.53,33.83,33.83,0,0,1-2.9-5.15,33.23,33.23,0,0,1-2.08-6,.64.64,0,0,1,0-.07.24.24,0,0,0,0-.08.31.31,0,0,1,0-.1,32.67,32.67,0,0,1-.74-7,33.3,33.3,0,0,1,50.42-28.55h0l.42.3c.5.36,1,.75,1.48,1.15.26.21.53.42.78.65v9a28.23,28.23,0,0,0-2.26-1.83,27.38,27.38,0,0,0-24.1-4.09,22.08,22.08,0,0,0-9.8,6q-.5.56-1,1.14A22.2,22.2,0,0,0,101.93,328.93Z" transform="translate(-79.29 -289.39)"/><path class="cls-4" d="M156.7,333.49a32.59,32.59,0,0,1-.35,4.78H144.44V328h11.8A32.92,32.92,0,0,1,156.7,333.49Z" transform="translate(-79.29 -289.39)"/><text class="cls-6" transform="translate(113.72 51.81)">Globe</text><text class="cls-7" transform="translate(119.72 71.53)">Company Limited</text><text class="cls-8" transform="translate(288.4 51.81)">Tech</text><rect class="cls-2" x="99.48" y="7.53" width="3.36" height="71.04"/></svg>